<svg id="Layer_2" data-name="Layer 2" xmlns="http://www.w3.org/2000/svg" viewBox="0 0 794.32 889.53"><defs><style>.cls-1{fill:#f8db04;}.cls-1,.cls-3{opacity:0.7;}.cls-2{fill:#fff;}.cls-3,.cls-4{fill:#7dc242;}.cls-5{fill:#166734;}.cls-6{fill:#f78e1e;}</style></defs><title>Plucky</title><path class="cls-1" d="M248.07,764.86a278.05,278.05,0,0,1-27.64-63s-11.59-39.11-11.59-79.86c0-154.28,125.06-279.34,279.34-279.34S767.52,467.77,767.52,622.05a278,278,0,0,1-40.75,145.34H488.18Z" transform="translate(-107.31 -90.47)"/><path class="cls-2" d="M308.66,764.86a278.47,278.47,0,0,1-27.65-63s-11.59-39.11-11.59-79.86c0-154.28,125.07-279.34,279.34-279.34S828.1,467.77,828.1,622.05a277.87,277.87,0,0,1-40.74,145.34H548.76Z" transform="translate(-107.31 -90.47)"/><path class="cls-2" d="M254.6,90.47a238.24,238.24,0,0,0-31.45,2.08,239.33,239.33,0,0,0-1.7,28.37c0,130.88,106.1,237,237,237a238.24,238.24,0,0,0,31.45-2.08,239.16,239.16,0,0,0,1.7-28.36C491.58,196.57,385.48,90.47,254.6,90.47Z" transform="translate(-107.31 -90.47)"/><path class="cls-3" d="M254.94,90.47a238.24,238.24,0,0,0-31.45,2.08,239.33,239.33,0,0,0-1.7,28.37c0,130.88,106.1,237,237,237a238.39,238.39,0,0,0,31.46-2.08,239.17,239.17,0,0,0,1.69-28.36C491.92,196.57,385.82,90.47,254.94,90.47Z" transform="translate(-107.31 -90.47)"/><path class="cls-4" d="M130.55,294.88a239.83,239.83,0,0,0-23.24,21.29,237.1,237.1,0,0,0,16.42,23.2c81.85,102.13,231,118.56,333.12,36.71a238.65,238.65,0,0,0,23.24-21.3,238.18,238.18,0,0,0-16.42-23.19C381.82,229.46,232.68,213,130.55,294.88Z" transform="translate(-107.31 -90.47)"/><path class="cls-5" d="M655.06,109.09a240,240,0,0,1,31.46,2.08,239.46,239.46,0,0,1,1.7,28.37c0,130.88-106.1,237-237,237a240.11,240.11,0,0,1-31.46-2.08,239.47,239.47,0,0,1-1.69-28.37C418.09,215.19,524.19,109.09,655.06,109.09Z" transform="translate(-107.31 -90.47)"/><path class="cls-5" d="M271.85,792.11q14.55,6.46,22.32,18.55t7.77,28.69q0,16.39-7.77,28.58t-22.32,18.66q-14.57,6.48-34.19,6.48H203.57v43.57h-28v-151h62.13Q257.28,785.64,271.85,792.11Zm-7.66,69.46q9.49-7.77,9.49-22.22t-9.49-22.22q-9.49-7.75-27.83-7.76H203.57v60h32.79Q254.69,869.34,264.19,861.57Z" transform="translate(-107.31 -90.47)"/><path class="cls-4" d="M329.55,776.58h27V936.64h-27Z" transform="translate(-107.31 -90.47)"/><path class="cls-4" d="M503.42,821.45V936.64H477.75V922a42.89,42.89,0,0,1-16.18,12,52,52,0,0,1-20.93,4.21q-23.08,0-36.34-12.83T391,887.24V821.45h27v62.12q0,15.54,7,23.19t20,7.66q14.44,0,23-8.95t8.52-25.78V821.45Z" transform="translate(-107.31 -90.47)"/><path class="cls-4" d="M559.5,930.6a55.31,55.31,0,0,1-22.21-21,62.09,62.09,0,0,1,0-60.94A55.81,55.81,0,0,1,559.4,827.7q14.11-7.55,32.25-7.55,17,0,29.87,6.91a44.73,44.73,0,0,1,19.31,19.84L620.12,859a32.91,32.91,0,0,0-12.4-12,33.92,33.92,0,0,0-16.29-4q-15.1,0-25,9.81T556.48,879q0,16.4,9.82,26.21t25.13,9.82a33.92,33.92,0,0,0,16.29-4,32.91,32.91,0,0,0,12.4-12l20.71,12.08a46.74,46.74,0,0,1-19.52,19.95q-12.84,7-29.66,7Q573.74,938.15,559.5,930.6Z" transform="translate(-107.31 -90.47)"/><path class="cls-4" d="M710.08,887.24l-20.07,19v30.42h-27V776.58h27v96.64l55.88-51.77h32.35l-48.1,48.32,52.63,66.87H750Z" transform="translate(-107.31 -90.47)"/><path class="cls-4" d="M901.63,821.45,847.7,945.92q-7.55,18.76-18.33,26.42T803.26,980a53.84,53.84,0,0,1-17-2.8,37.56,37.56,0,0,1-13.8-7.77l10.78-19.85a29.26,29.26,0,0,0,9.17,5.83,28.18,28.18,0,0,0,10.68,2.16,18.39,18.39,0,0,0,11.75-3.67q4.65-3.67,8.53-12.3l1.94-4.53L775,821.45h28l36.24,85.21,36.46-85.21Z" transform="translate(-107.31 -90.47)"/><path class="cls-6" d="M755,433.62c-2.38,11.1-52.21,36.47-147.48,70.48-98.8,35.27-166.71,46.95-170.2,37.19S496.08,504,594.88,468.75C664.3,444,691,408.73,722.6,403.4a278.15,278.15,0,0,0-173.84-60.69c-154.27,0-279.34,125.06-279.34,279.34,0,40.75,11.59,79.86,11.59,79.86a278.47,278.47,0,0,0,27.65,63l208.52,2.2c84.71-29,150.88-46.34,153.28-39.61,1.69,4.73-28.66,20.27-76.07,39.94h193A279.46,279.46,0,0,0,755,433.62Z" transform="translate(-107.31 -90.47)"/></svg>