<?xml version="1.0" encoding="utf-8"?>
<!-- Generator: Adobe Illustrator 16.0.0, SVG Export Plug-In . SVG Version: 6.00 Build 0)  -->
<!DOCTYPE svg PUBLIC "-//W3C//DTD SVG 1.1//EN" "http://www.w3.org/Graphics/SVG/1.1/DTD/svg11.dtd">
<svg version="1.1" id="Ebene_1" xmlns="http://www.w3.org/2000/svg" xmlns:xlink="http://www.w3.org/1999/xlink" x="0px" y="0px"
	 width="126px" height="126px" viewBox="0 0 126 126" enable-background="new 0 0 126 126" xml:space="preserve">
<g>
	<linearGradient id="SVGID_1_" gradientUnits="userSpaceOnUse" x1="28.0273" y1="46.6924" x2="60.582" y2="46.6924">
		<stop  offset="0" style="stop-color:#7BC722"/>
		<stop  offset="1" style="stop-color:#00A03D"/>
	</linearGradient>
	<path fill="url(#SVGID_1_)" d="M60.582,62.97H44.309c-8.99,0-16.281-7.291-16.281-16.281V30.415h16.281
		c8.988,0,16.273,7.283,16.273,16.273V62.97z"/>
	<linearGradient id="SVGID_2_" gradientUnits="userSpaceOnUse" x1="66.1211" y1="30.3604" x2="87.8223" y2="30.3604">
		<stop  offset="0" style="stop-color:#7BC722"/>
		<stop  offset="1" style="stop-color:#00A03D"/>
	</linearGradient>
	<path fill="url(#SVGID_2_)" d="M66.121,41.21V30.362c0-5.992,4.861-10.852,10.854-10.852h10.848v10.852
		c0,5.992-4.855,10.848-10.848,10.848H66.121z"/>
	<g>
		
			<linearGradient id="SVGID_3_" gradientUnits="userSpaceOnUse" x1="-337.8906" y1="140.0166" x2="-305.7052" y2="140.116" gradientTransform="matrix(0.0031 1 -1 0.0031 185.228 367.8726)">
			<stop  offset="0" style="stop-color:#7BC722"/>
			<stop  offset="1" style="stop-color:#00A03D"/>
		</linearGradient>
		<path fill="url(#SVGID_3_)" d="M28.027,30.464l0.049,16.092c0.027,8.887,7.258,16.072,16.146,16.045l16.088-0.051l-0.049-16.094
			c-0.027-8.887-7.252-16.068-16.139-16.041L28.027,30.464z"/>
		<path fill="#00A03D" d="M60.305,62.554l-16.084,0.049c-8.889,0.027-16.117-7.156-16.145-16.043l-0.049-16.098
			c0,0,2.98,4.658,3.006,13.367c0.027,8.711,7.303,16.072,16.145,16.045C56.021,59.847,60.305,62.554,60.305,62.554z"/>
	</g>
	<g>
		
			<linearGradient id="SVGID_4_" gradientUnits="userSpaceOnUse" x1="-349.0107" y1="409.0977" x2="-327.5576" y2="409.0977" gradientTransform="matrix(4.366649e-08 1 1 -4.366649e-08 -332.25 368.7651)">
			<stop  offset="0" style="stop-color:#7BC722"/>
			<stop  offset="1" style="stop-color:#00A03D"/>
		</linearGradient>
		<path fill="url(#SVGID_4_)" d="M87.574,19.755v10.725c0,5.926-4.805,10.729-10.729,10.729H66.121V30.479
			c0-5.924,4.799-10.725,10.725-10.725H87.574z"/>
		<path fill="#00A03D" d="M66.125,41.21h10.721c5.926,0,10.729-4.803,10.729-10.727v-10.73c0,0-1.977,3.109-1.977,8.916
			s-4.834,10.729-10.729,10.729S66.125,41.21,66.125,41.21z"/>
	</g>
	<path fill="#00A03D" d="M75.414,86.239v0.73c-0.02-0.119-0.02-0.24-0.02-0.369C75.395,86.479,75.395,86.36,75.414,86.239z"/>
	<linearGradient id="SVGID_5_" gradientUnits="userSpaceOnUse" x1="81.873" y1="106.4502" x2="81.873" y2="47.2803">
		<stop  offset="0" style="stop-color:#00841F"/>
		<stop  offset="1" style="stop-color:#00A03D"/>
	</linearGradient>
	<path fill="url(#SVGID_5_)" d="M97.963,47.28v16.07c0,0.68-0.039,1.35-0.119,2.01c-0.08,0.648-0.199,1.299-0.359,1.92
		c-0.102,0.42-0.221,0.84-0.361,1.24c-0.479,1.42-1.15,2.738-1.979,3.949c-0.121,0.17-0.24,0.34-0.371,0.51
		c-2.641,3.529-6.689,5.939-11.311,6.381c-0.219,0.029-0.449,0.049-0.68,0.059c-0.07,0-0.15,0.012-0.219,0.012
		c-3.842,0-6.971,3.02-7.15,6.809c-0.02,0.121-0.02,0.24-0.02,0.361c0,0.129,0,0.25,0.02,0.369v15.311
		c-0.27,2.17-1.99,3.9-4.17,4.17h-5.461v-22.1c0-1.9,0.73-3.621,1.951-4.9c0.389-0.43,0.84-0.811,1.34-1.131
		c0.67-0.43,1.43-0.76,2.229-0.949c0.031-0.01,0.061-0.01,0.092-0.02c0.18-0.041,0.359-0.08,0.549-0.121
		c1.961-0.43,4.371-0.75,7.211-0.75c0.09,0,0.17,0,0.26-0.01c0.5-0.01,1-0.039,1.5-0.1c7.92-0.891,14.34-7.74,14.34-15.98
		C95.254,51.819,97.803,47.54,97.963,47.28z"/>
	<g>
		<linearGradient id="SVGID_6_" gradientUnits="userSpaceOnUse" x1="81.873" y1="47.2588" x2="81.873" y2="84.3506">
			<stop  offset="0" style="stop-color:#7BC722"/>
			<stop  offset="1" style="stop-color:#00841F"/>
		</linearGradient>
		<path fill="url(#SVGID_6_)" d="M81.873,47.259c-8.889,0-16.09,7.201-16.09,16.092v14.969v1.121v0.01v4.9
			c0-1.9,0.73-3.621,1.951-4.9c0.389-0.43,0.84-0.811,1.34-1.131c0.67-0.43,1.43-0.76,2.229-0.949c0.031-0.01,0.061-0.01,0.092-0.02
			c0.277-0.066,0.59-0.125,0.889-0.186c0.336-0.07,0.68-0.139,1.043-0.201c0.252-0.043,0.521-0.08,0.787-0.117
			c0.314-0.047,0.625-0.094,0.957-0.133c0.365-0.041,0.754-0.07,1.139-0.104c0.27-0.021,0.525-0.051,0.805-0.066
			c0.686-0.039,1.396-0.064,2.141-0.064c0.09,0,0.17,0,0.26-0.01c0.5-0.01,1-0.039,1.5-0.1c-0.002,0-0.002-0.002-0.004-0.002
			c7.926-0.893,14.344-7.742,14.344-15.979c0-8.57,2.549-12.85,2.709-13.109v-0.021H81.873z"/>
		<linearGradient id="SVGID_7_" gradientUnits="userSpaceOnUse" x1="96.1338" y1="68.5205" x2="96.1338" y2="72.4697">
			<stop  offset="0" style="stop-color:#7BC722"/>
			<stop  offset="1" style="stop-color:#00922E"/>
		</linearGradient>
		<path fill="url(#SVGID_7_)" d="M97.123,68.521c-0.479,1.42-1.15,2.738-1.979,3.949C95.984,71.259,96.654,69.94,97.123,68.521z"/>
		<linearGradient id="SVGID_8_" gradientUnits="userSpaceOnUse" x1="97.9082" y1="47.2705" x2="97.9082" y2="65.3604">
			<stop  offset="0" style="stop-color:#7BC722"/>
			<stop  offset="1" style="stop-color:#00922E"/>
		</linearGradient>
		<path fill="url(#SVGID_8_)" d="M97.963,47.28v16.07c0,0.68-0.039,1.35-0.119,2.01c0.09-0.66,0.129-1.33,0.129-2.01v-16.08
			C97.973,47.271,97.973,47.271,97.963,47.28z"/>
	</g>
	<g>
		<path fill="#00841F" d="M75.418,96.851v4.818c0,0.211-0.01,0.41-0.041,0.611c-0.27,2.17-1.99,3.9-4.17,4.17
			c-0.199,0.029-0.4,0.039-0.609,0.039h-4.811c0,0,0.031-0.02,0.08-0.039c0.311-0.17,1.57-0.77,3.85-0.77
			c2.641,0,4.82-2.211,4.82-4.82c0-2.281,0.67-3.641,0.84-3.941C75.408,96.87,75.418,96.851,75.418,96.851z"/>
	</g>
</g>
<radialGradient id="SVGID_9_" cx="62.9971" cy="62.9951" r="63.7527" gradientTransform="matrix(0.9793 0 0 0.9974 1.3096 0.1711)" gradientUnits="userSpaceOnUse">
	<stop  offset="0" style="stop-color:#7BC722;stop-opacity:0"/>
	<stop  offset="0.9104" style="stop-color:#7BC722;stop-opacity:0.091"/>
	<stop  offset="1" style="stop-color:#7BC722;stop-opacity:0.1"/>
</radialGradient>
<path fill="url(#SVGID_9_)" d="M126,116.026c0,5.507-4.384,9.974-9.793,9.974H9.792C4.384,126,0,121.533,0,116.026V9.974
	C0,4.467,4.384,0,9.792,0h106.415C121.616,0,126,4.467,126,9.974V116.026z"/>
</svg>
